<svg width="74" height="35" viewBox="0 0 74 35" fill="none" xmlns="http://www.w3.org/2000/svg">
<path d="M0 0H56.5C66.165 0 74 7.83502 74 17.5C74 27.165 66.165 35 56.5 35H0V0Z" fill="#295E5E"/>
<path d="M18.368 22.14C17.556 22.14 16.8747 22.0187 16.324 21.776C15.7733 21.524 15.3487 21.202 15.05 20.81C14.7607 20.4087 14.6067 19.984 14.588 19.536C14.588 19.4613 14.616 19.396 14.672 19.34C14.7373 19.2747 14.812 19.242 14.896 19.242H15.61C15.722 19.242 15.806 19.27 15.862 19.326C15.918 19.382 15.9553 19.4473 15.974 19.522C16.0207 19.746 16.1327 19.97 16.31 20.194C16.4967 20.4087 16.7533 20.5907 17.08 20.74C17.416 20.88 17.8453 20.95 18.368 20.95C19.1707 20.95 19.7587 20.81 20.132 20.53C20.5147 20.2407 20.706 19.858 20.706 19.382C20.706 19.0553 20.6033 18.794 20.398 18.598C20.202 18.3927 19.8987 18.2107 19.488 18.052C19.0773 17.8933 18.5453 17.7207 17.892 17.534C17.2107 17.338 16.646 17.1233 16.198 16.89C15.75 16.6567 15.414 16.3673 15.19 16.022C14.9753 15.6767 14.868 15.238 14.868 14.706C14.868 14.202 15.0033 13.754 15.274 13.362C15.5447 12.9607 15.932 12.6433 16.436 12.41C16.9493 12.1767 17.57 12.06 18.298 12.06C18.8767 12.06 19.3807 12.1393 19.81 12.298C20.2487 12.4473 20.6127 12.6527 20.902 12.914C21.1913 13.166 21.4107 13.4413 21.56 13.74C21.7093 14.0293 21.7887 14.314 21.798 14.594C21.798 14.6593 21.7747 14.7247 21.728 14.79C21.6813 14.846 21.6067 14.874 21.504 14.874H20.762C20.6967 14.874 20.6267 14.8553 20.552 14.818C20.4867 14.7807 20.4353 14.7107 20.398 14.608C20.342 14.2253 20.1273 13.9033 19.754 13.642C19.3807 13.3807 18.8953 13.25 18.298 13.25C17.6913 13.25 17.1967 13.3667 16.814 13.6C16.4407 13.8333 16.254 14.1973 16.254 14.692C16.254 15.0093 16.3427 15.2753 16.52 15.49C16.6973 15.6953 16.9773 15.8773 17.36 16.036C17.7427 16.1947 18.242 16.3627 18.858 16.54C19.6047 16.7453 20.216 16.9647 20.692 17.198C21.168 17.422 21.518 17.7067 21.742 18.052C21.9753 18.388 22.092 18.822 22.092 19.354C22.092 19.942 21.938 20.446 21.63 20.866C21.322 21.2767 20.888 21.594 20.328 21.818C19.7773 22.0327 19.124 22.14 18.368 22.14ZM26.643 22.14C25.6817 22.14 24.9163 21.846 24.347 21.258C23.7777 20.6607 23.465 19.8487 23.409 18.822C23.3997 18.7007 23.395 18.5467 23.395 18.36C23.395 18.164 23.3997 18.0053 23.409 17.884C23.4463 17.2213 23.6003 16.6427 23.871 16.148C24.1417 15.644 24.5103 15.2567 24.977 14.986C25.453 14.7153 26.0083 14.58 26.643 14.58C27.3523 14.58 27.945 14.7293 28.421 15.028C28.9063 15.3267 29.275 15.7513 29.527 16.302C29.779 16.8527 29.905 17.4967 29.905 18.234V18.472C29.905 18.5747 29.8723 18.654 29.807 18.71C29.751 18.766 29.6763 18.794 29.583 18.794H24.739C24.739 18.8033 24.739 18.822 24.739 18.85C24.739 18.878 24.739 18.9013 24.739 18.92C24.7577 19.3027 24.8417 19.662 24.991 19.998C25.1403 20.3247 25.355 20.5907 25.635 20.796C25.915 21.0013 26.251 21.104 26.643 21.104C26.979 21.104 27.259 21.0527 27.483 20.95C27.707 20.8473 27.889 20.7353 28.029 20.614C28.169 20.4833 28.2623 20.3853 28.309 20.32C28.393 20.1987 28.4583 20.1287 28.505 20.11C28.5517 20.082 28.6263 20.068 28.729 20.068H29.401C29.4943 20.068 29.569 20.096 29.625 20.152C29.6903 20.1987 29.7183 20.2687 29.709 20.362C29.6997 20.502 29.625 20.6747 29.485 20.88C29.345 21.076 29.1443 21.272 28.883 21.468C28.6217 21.664 28.3043 21.8273 27.931 21.958C27.5577 22.0793 27.1283 22.14 26.643 22.14ZM24.739 17.828H28.575V17.786C28.575 17.366 28.4957 16.9927 28.337 16.666C28.1877 16.3393 27.9683 16.0827 27.679 15.896C27.3897 15.7 27.0443 15.602 26.643 15.602C26.2417 15.602 25.8963 15.7 25.607 15.896C25.327 16.0827 25.1123 16.3393 24.963 16.666C24.8137 16.9927 24.739 17.366 24.739 17.786V17.828ZM33.609 22.14C33.1423 22.14 32.7176 22.0467 32.335 21.86C31.9523 21.6733 31.6443 21.4213 31.411 21.104C31.1776 20.7867 31.061 20.4273 31.061 20.026C31.061 19.382 31.3223 18.8687 31.845 18.486C32.3676 18.1033 33.049 17.8513 33.889 17.73L35.975 17.436V17.03C35.975 16.582 35.8443 16.232 35.583 15.98C35.331 15.728 34.9156 15.602 34.337 15.602C33.917 15.602 33.5763 15.686 33.315 15.854C33.063 16.022 32.8856 16.2367 32.783 16.498C32.727 16.638 32.629 16.708 32.489 16.708H31.859C31.7563 16.708 31.677 16.68 31.621 16.624C31.5743 16.5587 31.551 16.484 31.551 16.4C31.551 16.26 31.6023 16.0873 31.705 15.882C31.817 15.6767 31.985 15.476 32.209 15.28C32.433 15.084 32.7176 14.9207 33.063 14.79C33.4176 14.65 33.847 14.58 34.351 14.58C34.911 14.58 35.3823 14.6547 35.765 14.804C36.1476 14.944 36.4463 15.1353 36.661 15.378C36.885 15.6207 37.0436 15.896 37.137 16.204C37.2396 16.512 37.291 16.8247 37.291 17.142V21.678C37.291 21.7713 37.2583 21.8507 37.193 21.916C37.137 21.972 37.0623 22 36.969 22H36.325C36.2223 22 36.143 21.972 36.087 21.916C36.031 21.8507 36.003 21.7713 36.003 21.678V21.076C35.8816 21.244 35.7183 21.412 35.513 21.58C35.3076 21.7387 35.051 21.874 34.743 21.986C34.435 22.0887 34.057 22.14 33.609 22.14ZM33.903 21.09C34.2856 21.09 34.6356 21.0107 34.953 20.852C35.2703 20.684 35.5176 20.4273 35.695 20.082C35.8816 19.7367 35.975 19.3027 35.975 18.78V18.388L34.351 18.626C33.6883 18.7193 33.189 18.878 32.853 19.102C32.517 19.3167 32.349 19.592 32.349 19.928C32.349 20.1893 32.4236 20.4087 32.573 20.586C32.7316 20.754 32.9276 20.88 33.161 20.964C33.4036 21.048 33.651 21.09 33.903 21.09ZM39.6256 22C39.5322 22 39.4529 21.972 39.3876 21.916C39.3316 21.8507 39.3036 21.7713 39.3036 21.678V15.056C39.3036 14.9627 39.3316 14.8833 39.3876 14.818C39.4529 14.7527 39.5322 14.72 39.6256 14.72H40.2696C40.3629 14.72 40.4422 14.7527 40.5076 14.818C40.5729 14.8833 40.6056 14.9627 40.6056 15.056V15.672C40.7922 15.3547 41.0489 15.1167 41.3756 14.958C41.7022 14.7993 42.0942 14.72 42.5516 14.72H43.1116C43.2049 14.72 43.2796 14.7527 43.3356 14.818C43.3916 14.874 43.4196 14.9487 43.4196 15.042V15.616C43.4196 15.7093 43.3916 15.784 43.3356 15.84C43.2796 15.896 43.2049 15.924 43.1116 15.924H42.2716C41.7676 15.924 41.3709 16.0733 41.0816 16.372C40.7922 16.6613 40.6476 17.058 40.6476 17.562V21.678C40.6476 21.7713 40.6149 21.8507 40.5496 21.916C40.4842 21.972 40.4049 22 40.3116 22H39.6256ZM47.4252 22.14C46.7626 22.14 46.1886 22.014 45.7032 21.762C45.2272 21.5007 44.8586 21.132 44.5972 20.656C44.3359 20.1707 44.1959 19.592 44.1772 18.92C44.1679 18.78 44.1632 18.5933 44.1632 18.36C44.1632 18.1267 44.1679 17.94 44.1772 17.8C44.1959 17.128 44.3359 16.554 44.5972 16.078C44.8586 15.5927 45.2272 15.224 45.7032 14.972C46.1886 14.7107 46.7626 14.58 47.4252 14.58C47.9666 14.58 48.4286 14.6547 48.8112 14.804C49.2032 14.9533 49.5252 15.1447 49.7772 15.378C50.0292 15.6113 50.2159 15.8633 50.3372 16.134C50.4679 16.4047 50.5379 16.6613 50.5472 16.904C50.5566 16.9973 50.5286 17.072 50.4632 17.128C50.3979 17.184 50.3186 17.212 50.2252 17.212H49.5532C49.4599 17.212 49.3899 17.1933 49.3432 17.156C49.2966 17.1093 49.2499 17.0347 49.2032 16.932C49.0352 16.4747 48.8066 16.1527 48.5172 15.966C48.2279 15.7793 47.8686 15.686 47.4392 15.686C46.8792 15.686 46.4219 15.8587 46.0672 16.204C45.7219 16.5493 45.5352 17.1047 45.5072 17.87C45.4979 18.206 45.4979 18.5327 45.5072 18.85C45.5352 19.6247 45.7219 20.1847 46.0672 20.53C46.4219 20.866 46.8792 21.034 47.4392 21.034C47.8686 21.034 48.2279 20.9407 48.5172 20.754C48.8066 20.5673 49.0352 20.2453 49.2032 19.788C49.2499 19.6853 49.2966 19.6153 49.3432 19.578C49.3899 19.5313 49.4599 19.508 49.5532 19.508H50.2252C50.3186 19.508 50.3979 19.536 50.4632 19.592C50.5286 19.648 50.5566 19.7227 50.5472 19.816C50.5379 20.012 50.4959 20.2127 50.4212 20.418C50.3466 20.6233 50.2252 20.8333 50.0572 21.048C49.8986 21.2533 49.6979 21.44 49.4552 21.608C49.2126 21.7667 48.9186 21.8973 48.5732 22C48.2372 22.0933 47.8546 22.14 47.4252 22.14ZM52.5458 22C52.4525 22 52.3732 21.972 52.3078 21.916C52.2518 21.8507 52.2238 21.7713 52.2238 21.678V12.382C52.2238 12.2887 52.2518 12.214 52.3078 12.158C52.3732 12.0927 52.4525 12.06 52.5458 12.06H53.2458C53.3485 12.06 53.4278 12.0927 53.4838 12.158C53.5398 12.214 53.5678 12.2887 53.5678 12.382V15.644C53.8198 15.3267 54.1278 15.07 54.4918 14.874C54.8558 14.678 55.3178 14.58 55.8778 14.58C56.4845 14.58 56.9978 14.7153 57.4178 14.986C57.8472 15.2473 58.1692 15.616 58.3838 16.092C58.6078 16.5587 58.7198 17.1047 58.7198 17.73V21.678C58.7198 21.7713 58.6918 21.8507 58.6358 21.916C58.5798 21.972 58.5005 22 58.3978 22H57.6978C57.6045 22 57.5252 21.972 57.4598 21.916C57.4038 21.8507 57.3758 21.7713 57.3758 21.678V17.8C57.3758 17.1467 57.2172 16.638 56.8998 16.274C56.5825 15.9007 56.1158 15.714 55.4998 15.714C54.9212 15.714 54.4545 15.9007 54.0998 16.274C53.7452 16.638 53.5678 17.1467 53.5678 17.8V21.678C53.5678 21.7713 53.5398 21.8507 53.4838 21.916C53.4278 21.972 53.3485 22 53.2458 22H52.5458Z" fill="white"/>
</svg>
